<svg width="40" height="45" viewBox="0 0 40 45" fill="none" xmlns="http://www.w3.org/2000/svg">
<path d="M16.6786 17.7627L25.1786 22.5176L16.6786 27.2725V17.7627ZM40 7.03125V37.9688C40 40.2979 38.0804 42.1875 35.7143 42.1875H4.28571C1.91964 42.1875 0 40.2979 0 37.9688V7.03125C0 4.70215 1.91964 2.8125 4.28571 2.8125H35.7143C38.0804 2.8125 40 4.70215 40 7.03125ZM36.25 22.5264C36.25 22.5264 36.25 17.2881 35.5714 14.7744C35.1964 13.3857 34.0982 12.2959 32.6964 11.9268C30.1696 11.25 20 11.25 20 11.25C20 11.25 9.83036 11.25 7.30357 11.9268C5.90179 12.2959 4.80357 13.3857 4.42857 14.7744C3.75 17.2793 3.75 22.5264 3.75 22.5264C3.75 22.5264 3.75 27.7646 4.42857 30.2783C4.80357 31.667 5.90179 32.7129 7.30357 33.082C9.83036 33.75 20 33.75 20 33.75C20 33.75 30.1696 33.75 32.6964 33.0732C34.0982 32.7041 35.1964 31.6582 35.5714 30.2695C36.25 27.7646 36.25 22.5264 36.25 22.5264V22.5264Z" fill="#EFEFEF"/>
</svg>
