<svg xmlns="http://www.w3.org/2000/svg" width="34" height="34.01" viewBox="0 0 34 34.01">
  <g id="Grupo_3232" data-name="Grupo 3232" transform="translate(-3629.996 -10924.686)">
    <path id="Trazado_3125" data-name="Trazado 3125" d="M3663.513,10930.8a8.812,8.812,0,0,0-7.495-6.052,2.546,2.546,0,0,1-.256-.06h-17.53c-.626.132-1.263.224-1.875.4a8.942,8.942,0,0,0-6.3,7.617c-.033.341-.054.684-.055,1.025q0,7.969,0,15.935a8.884,8.884,0,0,0,6.19,8.56,8.623,8.623,0,0,0,2.566.441q8.232.059,16.465.012a8.94,8.94,0,0,0,8.714-7.935,2.841,2.841,0,0,1,.062-.288v-17.531A16.1,16.1,0,0,0,3663.513,10930.8Zm-5.494,15.816a5.973,5.973,0,0,1-6.091,6.095q-4.93,0-9.859,0a5.973,5.973,0,0,1-6.095-6.091q0-4.931,0-9.86a5.971,5.971,0,0,1,6.091-6.093q4.931-.006,9.86,0a5.97,5.97,0,0,1,6.094,6.09q0,2.474,0,4.946Q3658.019,10944.157,3658.019,10946.613Z" fill="#efefef"/>
    <path id="Trazado_3126" data-name="Trazado 3126" d="M3656.026,10936.723a3.98,3.98,0,0,0-4.076-4.066q-4.945,0-9.89,0a3.985,3.985,0,0,0-4.094,4.084q0,2.455,0,4.912c0,1.671,0,3.341,0,5.011a3.986,3.986,0,0,0,4.061,4.052q4.962.007,9.923,0a3.981,3.981,0,0,0,4.076-4.067Q3656.032,10941.685,3656.026,10936.723Zm-9.032,9.942a4.98,4.98,0,1,1,4.983-4.977A4.989,4.989,0,0,1,3646.994,10946.665Zm5.734-9.7a.995.995,0,1,1,.974-1.008A1.005,1.005,0,0,1,3652.728,10936.97Z" fill="#efefef"/>
    <path id="Trazado_3127" data-name="Trazado 3127" d="M3649.983,10941.7a2.987,2.987,0,1,1-2.958-3A2.992,2.992,0,0,1,3649.983,10941.7Z" fill="#efefef"/>
  </g>
</svg>
