<svg xmlns="http://www.w3.org/2000/svg" width="34" height="34.001" viewBox="0 0 34 34.001">
  <g id="Grupo_3233" data-name="Grupo 3233" transform="translate(-3679.214 -10924.69)">
    <path id="Trazado_3128" data-name="Trazado 3128" d="M3713.214,10931.083a6.406,6.406,0,0,0-5.563-6.338.59.59,0,0,1-.153-.055h-22.574c-.289.061-.581.114-.868.186a6.38,6.38,0,0,0-4.78,5.3,1.327,1.327,0,0,1-.062.221v22.573c.062.29.116.582.187.87a6.328,6.328,0,0,0,5.975,4.828c1.537.037,3.076.011,4.614.011,5.577,0,11.153.01,16.73,0a6.274,6.274,0,0,0,5.943-3.776,5.737,5.737,0,0,0,.545-2.608C3713.208,10945.224,3713.193,10938.154,3713.214,10931.083Zm-6.26,5.057c-.5.5-1.023.975-1.522,1.474a.645.645,0,0,0-.191.408,13.41,13.41,0,0,1-5.64,11.264,11.825,11.825,0,0,1-5.665,2.177,13.061,13.061,0,0,1-6.338-.624,21.713,21.713,0,0,1-2.6-1.234,9.683,9.683,0,0,0,6.733-1.991,4.787,4.787,0,0,1-4.309-3.238h1.813c.009-.041.019-.083.029-.125a4.746,4.746,0,0,1-2.606-1.629,4.4,4.4,0,0,1-1.066-2.876l2.052.558c.021-.04.041-.079.063-.118a4.339,4.339,0,0,1-1.826-2.811,4.789,4.789,0,0,1,.549-3.325,13.38,13.38,0,0,0,9.511,4.852c0-.444-.011-.857,0-1.271a4.633,4.633,0,0,1,5.257-4.4,4.567,4.567,0,0,1,2.608,1.262.434.434,0,0,0,.365.1c.771-.26,1.536-.543,2.3-.826a4.479,4.479,0,0,0,.442-.229,5.147,5.147,0,0,1-1.833,2.538c.257-.051.514-.092.766-.151s.515-.131.767-.21a4.361,4.361,0,0,1,.835-.22A5.9,5.9,0,0,1,3706.954,10936.14Z" fill="#efefef"/>
  </g>
</svg>
