<?xml version="1.0" encoding="utf-8"?>
<!-- Generator: Adobe Illustrator 25.4.1, SVG Export Plug-In . SVG Version: 6.00 Build 0)  -->
<svg version="1.1" id="Layer_1" xmlns="http://www.w3.org/2000/svg" xmlns:xlink="http://www.w3.org/1999/xlink" x="0px" y="0px"
	 viewBox="0 0 190.17 66.86" style="enable-background:new 0 0 190.17 66.86;" xml:space="preserve">
<style type="text/css">
	.st0{fill:#FFFFFF;}
</style>
<g>
	<path class="st0" d="M56.69,51.46c-2.55,4.81-6.13,8.58-10.72,11.3c-4.6,2.73-9.83,4.09-15.71,4.09s-11.11-1.36-15.71-4.09
		c-4.6-2.73-8.17-6.5-10.72-11.3C1.28,46.65,0,41.22,0,35.17c0-6.05,1.28-11.48,3.83-16.29c2.55-4.81,6.13-8.57,10.72-11.3
		c4.6-2.73,9.83-4.09,15.71-4.09s11.11,1.37,15.71,4.09c4.6,2.73,8.17,6.5,10.72,11.3c2.55,4.81,3.83,10.23,3.83,16.29
		C60.52,41.22,59.24,46.65,56.69,51.46z M12.99,46.88c1.66,3.47,3.99,6.17,6.99,8.1c3,1.93,6.42,2.89,10.28,2.89
		c3.86,0,7.28-0.96,10.28-2.89c3-1.93,5.33-4.63,6.99-8.1c1.66-3.47,2.49-7.37,2.49-11.7c0-4.33-0.83-8.23-2.49-11.7
		c-1.66-3.47-3.99-6.17-6.99-8.1c-3-1.93-6.42-2.89-10.28-2.89c-3.86,0-7.28,0.96-10.28,2.89c-3,1.93-5.33,4.63-6.99,8.1
		c-1.66,3.47-2.49,7.37-2.49,11.7C10.5,39.5,11.33,43.4,12.99,46.88z"/>
	<path class="st0" d="M105.78,25.2c3.41,3.32,5.12,8.66,5.12,16.02v25.1h-9.7V41.76c0-4.33-0.92-7.62-2.76-9.88
		c-1.84-2.25-4.54-3.38-8.1-3.38c-3.8,0-6.78,1.32-8.95,3.96c-2.17,2.64-3.25,6.27-3.25,10.9v22.96h-9.61V20.75h8.37l1.07,5.96
		c3.44-4.33,8.31-6.5,14.6-6.5C97.96,20.22,102.36,21.88,105.78,25.2z"/>
	<path class="st0" d="M120.73,31.3c1.87-3.53,4.48-6.26,7.83-8.19c3.35-1.93,7.19-2.89,11.53-2.89c4.39,0,8.26,0.89,11.62,2.67
		c3.35,1.78,5.99,4.3,7.92,7.56c1.93,3.26,2.92,7.09,2.98,11.48c0,1.19-0.09,2.4-0.27,3.65h-34.35v0.53
		c0.24,3.98,1.48,7.12,3.74,9.43c2.25,2.31,5.25,3.47,8.99,3.47c2.97,0,5.46-0.7,7.48-2.09c2.02-1.39,3.35-3.37,4-5.92h9.61
		c-0.83,4.63-3.07,8.43-6.72,11.39c-3.65,2.97-8.2,4.45-13.66,4.45c-4.75,0-8.89-0.96-12.42-2.89c-3.53-1.93-6.26-4.64-8.19-8.14
		c-1.93-3.5-2.89-7.57-2.89-12.19C117.92,38.94,118.86,34.83,120.73,31.3z M152.81,38.55c-0.42-3.32-1.74-5.92-3.96-7.79
		c-2.22-1.87-5.03-2.8-8.41-2.8c-3.15,0-5.86,0.97-8.14,2.89c-2.29,1.93-3.6,4.5-3.96,7.7H152.81z"/>
	<path class="st0" d="M169.34,5.42c0.99-1.68,2.33-3,4.02-3.97c1.69-0.97,3.56-1.45,5.6-1.45c2.08,0,3.97,0.49,5.68,1.45
		c1.71,0.97,3.06,2.28,4.05,3.94c0.99,1.66,1.48,3.51,1.48,5.55c0,2.01-0.49,3.84-1.48,5.5c-0.99,1.66-2.33,2.97-4.05,3.92
		c-1.71,0.95-3.61,1.43-5.68,1.43c-2.04,0-3.91-0.47-5.6-1.43c-1.7-0.95-3.04-2.25-4.02-3.89c-0.99-1.64-1.48-3.47-1.48-5.47
		C167.86,8.96,168.35,7.1,169.34,5.42z M186.41,6.54c-0.74-1.31-1.76-2.34-3.06-3.09c-1.3-0.74-2.76-1.12-4.38-1.12
		c-1.59,0-3.04,0.37-4.33,1.12c-1.3,0.74-2.32,1.78-3.06,3.11c-0.74,1.33-1.12,2.81-1.12,4.44c0,1.59,0.37,3.04,1.12,4.33
		c0.74,1.3,1.76,2.32,3.06,3.06c1.3,0.74,2.74,1.12,4.33,1.12c1.63,0,3.09-0.37,4.38-1.12c1.3-0.74,2.32-1.77,3.06-3.09
		c0.74-1.31,1.12-2.77,1.12-4.36C187.52,9.32,187.15,7.85,186.41,6.54z M179.43,5.03c1.42,0,2.54,0.35,3.37,1.04
		c0.83,0.69,1.25,1.63,1.25,2.8c0,0.8-0.22,1.5-0.65,2.1c-0.43,0.61-1.05,1.05-1.84,1.32l2.59,4.57h-2.85l-2.28-4.05h-1.66v4.05
		h-2.59V5.03H179.43z M177.35,10.69h1.92c0.62,0,1.12-0.16,1.5-0.49c0.38-0.33,0.57-0.77,0.57-1.32c0-0.55-0.18-0.98-0.54-1.27
		c-0.36-0.29-0.87-0.44-1.53-0.44h-1.92V10.69z"/>
</g>
</svg>
