<?xml version="1.0" encoding="utf-8"?>
<!-- Generator: Adobe Illustrator 25.4.1, SVG Export Plug-In . SVG Version: 6.00 Build 0)  -->
<svg version="1.1" id="Layer_1" xmlns="http://www.w3.org/2000/svg" xmlns:xlink="http://www.w3.org/1999/xlink" x="0px" y="0px"
	 viewBox="0 0 218.74 66.86" style="enable-background:new 0 0 218.74 66.86;" xml:space="preserve">
<style type="text/css">
	.st0{fill:#1A1A1A;}
</style>
<g>
	<path class="st0" d="M0,4.02h10.86l17.18,50.02L45.39,4.02h10.59l-21.8,62.3H21.89L0,4.02z"/>
	<path class="st0" d="M61.63,63.96c-3.53-1.93-6.26-4.66-8.19-8.19c-1.93-3.53-2.89-7.61-2.89-12.24c0-4.57,0.96-8.62,2.89-12.15
		c1.93-3.53,4.66-6.27,8.19-8.23c3.53-1.96,7.58-2.94,12.15-2.94c4.57,0,8.62,0.98,12.15,2.94c3.53,1.96,6.26,4.7,8.19,8.23
		c1.93,3.53,2.89,7.58,2.89,12.15c0,4.63-0.97,8.71-2.89,12.24c-1.93,3.53-4.66,6.26-8.19,8.19c-3.53,1.93-7.58,2.89-12.15,2.89
		C69.21,66.86,65.16,65.89,61.63,63.96z M83.53,54.44c2.46-2.82,3.69-6.45,3.69-10.9s-1.23-8.08-3.69-10.9
		c-2.46-2.82-5.71-4.23-9.75-4.23c-4.04,0-7.27,1.41-9.7,4.23c-2.43,2.82-3.65,6.45-3.65,10.9s1.21,8.08,3.65,10.9
		c2.43,2.82,5.67,4.23,9.7,4.23C77.81,58.67,81.06,57.26,83.53,54.44z"/>
	<path class="st0" d="M101.19,4.02h9.61v62.3h-9.61V4.02z"/>
	<path class="st0" d="M123.17,29.21h-7.92v-8.46h7.92V4.02h9.7v16.73h10.95v8.46h-10.95v23.76c0,1.78,0.36,3.04,1.07,3.78
		c0.71,0.74,1.93,1.11,3.65,1.11h7.3v8.46h-9.26c-4.33,0-7.49-1.01-9.48-3.03c-1.99-2.02-2.98-5.13-2.98-9.34V29.21z"/>
	<path class="st0" d="M193.66,57.96v8.37h-5.07c-2.97,0-5.1-0.62-6.41-1.87c-1.31-1.25-1.96-3.05-1.96-5.43
		c-3.44,5.22-8.46,7.83-15.04,7.83c-5.1,0-9.2-1.19-12.28-3.56c-3.09-2.37-4.63-5.64-4.63-9.79c0-4.69,1.66-8.29,4.98-10.81
		c3.32-2.52,8.16-3.78,14.51-3.78h11.48v-2.76c0-2.55-0.89-4.55-2.67-6.01c-1.78-1.45-4.24-2.18-7.39-2.18
		c-2.79,0-5.09,0.61-6.9,1.83c-1.81,1.22-2.89,2.83-3.25,4.85h-9.43c0.47-4.57,2.49-8.11,6.05-10.64c3.56-2.52,8.22-3.78,13.97-3.78
		c6.11,0,10.83,1.42,14.15,4.27c3.32,2.85,4.98,6.94,4.98,12.28v17.98c0,2.14,1.01,3.2,3.03,3.2H193.66z M179.24,46.03h-11.93
		c-2.97,0-5.25,0.58-6.85,1.74c-1.6,1.16-2.4,2.86-2.4,5.12c0,1.96,0.76,3.53,2.27,4.72c1.51,1.19,3.57,1.78,6.19,1.78
		c3.97,0,7.08-1.07,9.3-3.2c2.22-2.14,3.37-4.98,3.43-8.54V46.03z"/>
	<path class="st0" d="M197.9,5.42c0.99-1.68,2.33-3,4.02-3.97c1.69-0.97,3.56-1.45,5.6-1.45c2.08,0,3.97,0.49,5.68,1.45
		c1.71,0.97,3.06,2.28,4.05,3.94c0.99,1.66,1.48,3.51,1.48,5.55c0,2.01-0.49,3.84-1.48,5.5c-0.99,1.66-2.33,2.97-4.05,3.92
		c-1.71,0.95-3.61,1.43-5.68,1.43c-2.04,0-3.91-0.47-5.6-1.43c-1.7-0.95-3.04-2.25-4.02-3.89c-0.99-1.64-1.48-3.47-1.48-5.47
		C196.43,8.96,196.92,7.1,197.9,5.42z M214.97,6.54c-0.74-1.31-1.76-2.34-3.06-3.09c-1.3-0.74-2.76-1.12-4.38-1.12
		c-1.59,0-3.04,0.37-4.33,1.12c-1.3,0.74-2.32,1.78-3.06,3.11c-0.74,1.33-1.12,2.81-1.12,4.44c0,1.59,0.37,3.04,1.12,4.33
		c0.74,1.3,1.76,2.32,3.06,3.06c1.3,0.74,2.74,1.12,4.33,1.12c1.63,0,3.09-0.37,4.38-1.12c1.3-0.74,2.32-1.77,3.06-3.09
		c0.74-1.31,1.12-2.77,1.12-4.36C216.09,9.32,215.72,7.85,214.97,6.54z M208,5.03c1.42,0,2.54,0.35,3.37,1.04
		c0.83,0.69,1.25,1.63,1.25,2.8c0,0.8-0.22,1.5-0.65,2.1c-0.43,0.61-1.05,1.05-1.84,1.32l2.59,4.57h-2.85l-2.28-4.05h-1.66v4.05
		h-2.59V5.03H208z M205.92,10.69h1.92c0.62,0,1.12-0.16,1.5-0.49c0.38-0.33,0.57-0.77,0.57-1.32c0-0.55-0.18-0.98-0.54-1.27
		c-0.36-0.29-0.87-0.44-1.53-0.44h-1.92V10.69z"/>
</g>
</svg>
