<svg xmlns="http://www.w3.org/2000/svg" width="806.876" height="235.855" viewBox="0 0 806.876 235.855">
  <g id="Grupo_3252" data-name="Grupo 3252" transform="translate(-34.351 -70.908)">
    <g id="Grupo_3248" data-name="Grupo 3248" transform="translate(34.351 70.908)">
      <path id="Trazado_3144" data-name="Trazado 3144" d="M197.731,76.43l-83.293,83.293h-62.8V70.908h143.8A3.234,3.234,0,0,1,197.731,76.43Z" transform="translate(37.174 -70.908)" fill="#1a1a1a"/>
      <path id="Trazado_3145" data-name="Trazado 3145" d="M117.644,234.283,34.351,151V88.2h88.815V232A3.234,3.234,0,0,1,117.644,234.283Z" transform="translate(-34.351 0.617)" fill="#1a1a1a"/>
      <path id="Trazado_3146" data-name="Trazado 3146" d="M213.84,195.4H96.043L51.641,151l62.8-62.8L216.126,189.881A3.234,3.234,0,0,1,213.84,195.4Z" transform="translate(37.174 0.617)" fill="#1a1a1a"/>
    </g>
    <g id="Grupo_3251" data-name="Grupo 3251" transform="translate(377.555 122.819)">
      <path id="Trazado_3147" data-name="Trazado 3147" d="M130.17,113.677A46.179,46.179,0,0,1,148.195,94.83a52.271,52.271,0,0,1,26.526-6.657q15.156,0,26.727,6.149a45.629,45.629,0,0,1,18.23,17.409q6.657,11.265,6.863,26.424a59.21,59.21,0,0,1-.616,8.4h-79.06v1.228q.817,13.723,8.6,21.713t20.691,7.988q10.24,0,17.2-4.813a22.809,22.809,0,0,0,9.221-13.623H224.7a42.435,42.435,0,0,1-15.462,26.218q-12.6,10.248-31.442,10.243-16.389,0-28.576-6.657A46.524,46.524,0,0,1,130.375,170.1q-6.657-12.082-6.657-28.062Q123.718,125.869,130.17,113.677Zm73.841,16.695q-1.441-11.473-9.118-17.922t-19.355-6.457A28.133,28.133,0,0,0,156.8,112.65a26.017,26.017,0,0,0-9.118,17.722Z" transform="translate(-7.863 -51.398)" fill="#1a1a1a"/>
      <path id="Trazado_3148" data-name="Trazado 3148" d="M244.936,185.161q-12.7,10.348-32.567,10.345-15.564,0-27.446-6.657A45.454,45.454,0,0,1,166.59,169.9q-6.449-12.29-6.447-28.263t6.549-28.062A46.291,46.291,0,0,1,185.231,94.83q11.982-6.65,27.754-6.657,19.664,0,32.156,10.345t15.57,28.165H237.976a25.547,25.547,0,0,0-9.015-14.337q-6.758-5.324-16.592-5.327-13.314,0-21.4,9.626t-8.09,24.99q0,15.564,8.09,25.293t21.4,9.729q10.24,0,17-5.424a25.123,25.123,0,0,0,8.81-14.645h22.53Q257.637,174.82,244.936,185.161Z" transform="translate(142.819 -51.398)" fill="#1a1a1a"/>
      <path id="Trazado_3149" data-name="Trazado 3149" d="M178.743,81.123v5.383h9.328v22.679h6.036V86.506h9.328V81.123Zm56.335,0-9.046,21.153-9.164-21.153H207.93v28.062h5.707V86.445l9.724,22.741h4.9l9.94-22.741v22.741h5.707V81.123Z" transform="translate(219.764 -80.562)" fill="#1a1a1a"/>
      <path id="Trazado_3150" data-name="Trazado 3150" d="M146.376,81.014H168.5V224.577H146.376Z" transform="translate(85.868 -81.013)" fill="#1a1a1a"/>
      <g id="Grupo_3250" data-name="Grupo 3250" transform="translate(270.138)">
        <g id="Grupo_3249" data-name="Grupo 3249" transform="translate(0 37.32)">
          <path id="Trazado_3151" data-name="Trazado 3151" d="M153.753,88.279h22.119V194.523H153.753Z" transform="translate(-153.753 -88.279)" fill="#1a1a1a"/>
        </g>
        <circle id="Elipse_57" data-name="Elipse 57" cx="11.061" cy="11.061" r="11.061" transform="translate(0)" fill="#1a1a1a"/>
      </g>
      <path id="Trazado_3152" data-name="Trazado 3152" d="M183.157,224.506h27.888l-36.379-53.674a45.419,45.419,0,0,0-9.652-89.8h-63.85V224.511h23.085V171.874h23.234ZM124.249,104.115h40.766a22.337,22.337,0,1,1,0,44.675H124.249Z" transform="translate(-101.164 -80.947)" fill="#1a1a1a"/>
    </g>
  </g>
</svg>
