<svg xmlns="http://www.w3.org/2000/svg" width="157.078" height="45.915" viewBox="0 0 157.078 45.915">
  <g id="Grupo_3252" data-name="Grupo 3252" transform="translate(-34.351 -70.908)">
    <g id="Grupo_3248" data-name="Grupo 3248">
      <path id="Trazado_3144" data-name="Trazado 3144" d="M80.081,71.983,63.866,88.2H51.641V70.908h28A.63.63,0,0,1,80.081,71.983Z" fill="#efefef"/>
      <path id="Trazado_3145" data-name="Trazado 3145" d="M50.566,116.637,34.351,100.423V88.2h17.29v27.994A.63.63,0,0,1,50.566,116.637Z" fill="#efefef"/>
      <path id="Trazado_3146" data-name="Trazado 3146" d="M83.217,109.068H60.285l-8.644-8.645L63.867,88.2l19.8,19.795A.63.63,0,0,1,83.217,109.068Z" fill="#efefef"/>
    </g>
    <g id="Grupo_3251" data-name="Grupo 3251">
      <path id="Trazado_3147" data-name="Trazado 3147" d="M124.974,93.138a8.99,8.99,0,0,1,3.509-3.669,10.176,10.176,0,0,1,5.164-1.3,10.923,10.923,0,0,1,5.2,1.2,8.883,8.883,0,0,1,3.549,3.389,10.208,10.208,0,0,1,1.336,5.144,11.526,11.526,0,0,1-.12,1.635H128.224v.239A6.371,6.371,0,0,0,129.9,104a5.372,5.372,0,0,0,4.028,1.555,5.747,5.747,0,0,0,3.349-.937,4.44,4.44,0,0,0,1.8-2.652h4.306a8.261,8.261,0,0,1-3.01,5.1,9.385,9.385,0,0,1-6.121,1.994,11.428,11.428,0,0,1-5.563-1.3,9.057,9.057,0,0,1-3.668-3.649,11.138,11.138,0,0,1-1.3-5.463A11.639,11.639,0,0,1,124.974,93.138Zm14.375,3.25a5.2,5.2,0,0,0-1.775-3.489,5.654,5.654,0,0,0-3.768-1.257,5.477,5.477,0,0,0-3.648,1.3,5.065,5.065,0,0,0-1.775,3.45Z" fill="#efefef"/>
      <path id="Trazado_3148" data-name="Trazado 3148" d="M176.65,107.054a9.711,9.711,0,0,1-6.34,2.014,10.746,10.746,0,0,1-5.343-1.3,8.849,8.849,0,0,1-3.569-3.689,11.667,11.667,0,0,1-1.255-5.5,11.278,11.278,0,0,1,1.275-5.463,9.012,9.012,0,0,1,3.609-3.649,10.952,10.952,0,0,1,5.4-1.3,9.492,9.492,0,0,1,6.26,2.014,8.779,8.779,0,0,1,3.031,5.483h-4.426a4.973,4.973,0,0,0-1.755-2.791,5.059,5.059,0,0,0-3.23-1.037,5.171,5.171,0,0,0-4.166,1.874,7.3,7.3,0,0,0-1.575,4.865,7.439,7.439,0,0,0,1.575,4.924,5.606,5.606,0,0,0,7.476.838,4.891,4.891,0,0,0,1.715-2.851h4.386A8.76,8.76,0,0,1,176.65,107.054Z" fill="#efefef"/>
      <path id="Trazado_3149" data-name="Trazado 3149" d="M178.743,81.123v1.048h1.816v4.415h1.175V82.171h1.816V81.123Zm10.967,0-1.761,4.118-1.784-4.118h-1.74v5.463h1.111V82.159l1.893,4.427h.954l1.935-4.427v4.427h1.111V81.123Z" fill="#efefef"/>
      <path id="Trazado_3150" data-name="Trazado 3150" d="M146.376,81.014h4.307v27.948h-4.307Z" fill="#efefef"/>
      <g id="Grupo_3250" data-name="Grupo 3250">
        <g id="Grupo_3249" data-name="Grupo 3249">
          <path id="Trazado_3151" data-name="Trazado 3151" d="M153.753,88.279h4.306v20.683h-4.306Z" fill="#efefef"/>
        </g>
        <circle id="Elipse_57" data-name="Elipse 57" cx="2.153" cy="2.153" r="2.153" transform="translate(153.753 81.014)" fill="#efefef"/>
      </g>
      <path id="Trazado_3152" data-name="Trazado 3152" d="M117.126,108.961h5.429l-7.082-10.449a8.842,8.842,0,0,0-1.879-17.482h-12.43v27.932h4.494V98.715h4.523ZM105.658,85.524h7.936a4.348,4.348,0,1,1,0,8.7h-7.936Z" fill="#efefef"/>
    </g>
  </g>
</svg>
