<svg xmlns="http://www.w3.org/2000/svg" width="218.737" height="66.855" viewBox="0 0 218.737 66.855">
  <g id="Grupo_3203" data-name="Grupo 3203" transform="translate(-2211.669 -44.776)">
    <g id="Grupo_3202" data-name="Grupo 3202">
      <path id="Trazado_3043" data-name="Trazado 3043" d="M2211.669,48.8h10.857L2239.7,98.815,2257.058,48.8h10.591l-21.8,62.3h-12.283Z" fill="#1a1a1a"/>
      <path id="Trazado_3044" data-name="Trazado 3044" d="M2273.3,108.739a20.131,20.131,0,0,1-8.188-8.189,25.1,25.1,0,0,1-2.892-12.237,24.916,24.916,0,0,1,2.892-12.148,20.432,20.432,0,0,1,8.188-8.233,26.6,26.6,0,0,1,24.3,0,20.457,20.457,0,0,1,8.188,8.233,24.949,24.949,0,0,1,2.893,12.148,25.131,25.131,0,0,1-2.893,12.237,20.155,20.155,0,0,1-8.188,8.189,26.962,26.962,0,0,1-24.3,0Zm21.894-9.524a15.971,15.971,0,0,0,3.694-10.9,15.973,15.973,0,0,0-3.694-10.9,12.315,12.315,0,0,0-9.746-4.228,12.179,12.179,0,0,0-9.7,4.228,16.081,16.081,0,0,0-3.649,10.9,16.079,16.079,0,0,0,3.649,10.9,12.172,12.172,0,0,0,9.7,4.228A12.309,12.309,0,0,0,2295.2,99.215Z" fill="#1a1a1a"/>
      <path id="Trazado_3045" data-name="Trazado 3045" d="M2312.86,48.8h9.613v62.3h-9.613Z" fill="#1a1a1a"/>
      <path id="Trazado_3046" data-name="Trazado 3046" d="M2334.843,73.984h-7.921V65.529h7.921V48.8h9.7V65.529h10.946v8.455h-10.946V97.748a5.386,5.386,0,0,0,1.067,3.782,4.924,4.924,0,0,0,3.65,1.112h7.3V111.1H2347.3q-6.5,0-9.479-3.026t-2.981-9.345Z" fill="#1a1a1a"/>
      <path id="Trazado_3047" data-name="Trazado 3047" d="M2405.33,102.731V111.1h-5.073q-4.452,0-6.409-1.869a7.156,7.156,0,0,1-1.958-5.429q-5.161,7.833-15.041,7.832-7.655,0-12.281-3.56a11.668,11.668,0,0,1-4.629-9.79q0-7.029,4.985-10.814t14.507-3.782h11.481V80.926a7.342,7.342,0,0,0-2.67-6.008,11.366,11.366,0,0,0-7.388-2.18,12.112,12.112,0,0,0-6.9,1.825,7.173,7.173,0,0,0-3.248,4.851h-9.434a14.2,14.2,0,0,1,6.052-10.636q5.34-3.783,13.973-3.782,9.165,0,14.151,4.271t4.983,12.282V99.527q0,3.206,3.027,3.2Zm-14.418-11.926h-11.926q-4.452,0-6.853,1.736a5.91,5.91,0,0,0-2.4,5.117,5.7,5.7,0,0,0,2.27,4.718,9.767,9.767,0,0,0,6.185,1.779q5.962,0,9.3-3.2a11.582,11.582,0,0,0,3.427-8.544Z" fill="#1a1a1a"/>
      <path id="Trazado_3048" data-name="Trazado 3048" d="M2409.573,50.2a10.791,10.791,0,0,1,4.022-3.97,11.1,11.1,0,0,1,5.6-1.453,11.346,11.346,0,0,1,5.682,1.453,10.813,10.813,0,0,1,4.047,3.943,10.792,10.792,0,0,1-4.047,14.97,11.494,11.494,0,0,1-5.682,1.427,11.24,11.24,0,0,1-5.6-1.427,10.712,10.712,0,0,1-4.022-3.891,10.434,10.434,0,0,1-1.478-5.474A10.8,10.8,0,0,1,2409.573,50.2Zm17.07,1.115a8.082,8.082,0,0,0-3.06-3.087,8.657,8.657,0,0,0-4.385-1.116,8.554,8.554,0,0,0-4.333,1.116,8.028,8.028,0,0,0-3.06,3.113,8.934,8.934,0,0,0-1.117,4.437,8.542,8.542,0,0,0,1.117,4.332,8.119,8.119,0,0,0,3.06,3.061,8.544,8.544,0,0,0,4.333,1.116,8.647,8.647,0,0,0,4.385-1.116,8.068,8.068,0,0,0,3.06-3.087,8.684,8.684,0,0,0,1.117-4.359A8.789,8.789,0,0,0,2426.643,51.314Zm-6.978-1.505a5.111,5.111,0,0,1,3.373,1.038,3.46,3.46,0,0,1,1.245,2.8,3.532,3.532,0,0,1-.648,2.1,3.681,3.681,0,0,1-1.842,1.323l2.594,4.565h-2.854l-2.283-4.047h-1.66v4.047H2415V49.809Zm-2.075,5.656h1.92a2.223,2.223,0,0,0,1.5-.493,1.661,1.661,0,0,0,.57-1.323,1.545,1.545,0,0,0-.545-1.272,2.379,2.379,0,0,0-1.53-.44h-1.92Z" fill="#1a1a1a"/>
    </g>
  </g>
</svg>
